<svg xmlns="http://www.w3.org/2000/svg" width="24" height="24" viewBox="0 0 24 24" fill="none" class="huge-animated-icon" data-huge-icon="draw" data-huge-source="Coins01Icon" aria-hidden="true" focusable="false">
  <ellipse cx="15.5" cy="11" rx="6.5" ry="2" stroke="currentColor" stroke-width="1.5" class="huge-icon-part" pathLength="1" style="--icon-motion:huge-draw;--icon-delay:0ms"/>
  <path d="M22 15.5C22 16.6046 19.0899 17.5 15.5 17.5C11.9101 17.5 9 16.6046 9 15.5" stroke="currentColor" stroke-width="1.5" class="huge-icon-part" pathLength="1" style="--icon-motion:huge-draw;--icon-delay:40ms"/>
  <path d="M22 11V19.8C22 21.015 19.0899 22 15.5 22C11.9101 22 9 21.015 9 19.8V11" stroke="currentColor" stroke-width="1.5" class="huge-icon-part" pathLength="1" style="--icon-motion:huge-draw;--icon-delay:80ms"/>
  <ellipse cx="8.5" cy="4" rx="6.5" ry="2" stroke="currentColor" stroke-width="1.5" class="huge-icon-part" pathLength="1" style="--icon-motion:huge-draw;--icon-delay:0ms"/>
  <path d="M6 11C4.10819 10.7698 2.36991 10.1745 2 9M6 16C4.10819 15.7698 2.36991 15.1745 2 14" stroke="currentColor" stroke-linecap="round" stroke-width="1.5" class="huge-icon-part" pathLength="1" style="--icon-motion:huge-draw;--icon-delay:40ms"/>
  <path d="M6 21C4.10819 20.7698 2.36991 20.1745 2 19L2 4" stroke="currentColor" stroke-linecap="round" stroke-width="1.5" class="huge-icon-part" pathLength="1" style="--icon-motion:huge-draw;--icon-delay:80ms"/>
  <path d="M15 6V4" stroke="currentColor" stroke-linecap="round" stroke-width="1.5" class="huge-icon-part" pathLength="1" style="--icon-motion:huge-draw;--icon-delay:0ms"/>
</svg>
